<?xml version="1.0" encoding="UTF-8" standalone="no"?>
<!-- Creator: CorelDRAW -->

<svg
   xmlns:dc="http://purl.org/dc/elements/1.1/"
   xmlns:cc="http://creativecommons.org/ns#"
   xmlns:rdf="http://www.w3.org/1999/02/22-rdf-syntax-ns#"
   xmlns:svg="http://www.w3.org/2000/svg"
   xmlns="http://www.w3.org/2000/svg"
   xmlns:sodipodi="http://sodipodi.sourceforge.net/DTD/sodipodi-0.dtd"
   xmlns:inkscape="http://www.inkscape.org/namespaces/inkscape"
   xml:space="preserve"
   width="115mm"
   height="60mm"
   style="shape-rendering:geometricPrecision; text-rendering:geometricPrecision; image-rendering:optimizeQuality; fill-rule:evenodd; clip-rule:evenodd"
   viewBox="0 0 115 60"
   id="svg2"
   version="1.1"
   inkscape:version="0.91 r13725"
   sodipodi:docname="monterey_logo_e8.svg"><metadata
     id="metadata22"><rdf:RDF><cc:Work
         rdf:about=""><dc:format>image/svg+xml</dc:format><dc:type
           rdf:resource="http://purl.org/dc/dcmitype/StillImage" /><dc:title></dc:title></cc:Work></rdf:RDF></metadata><sodipodi:namedview
     pagecolor="#ffffff"
     bordercolor="#666666"
     borderopacity="1"
     objecttolerance="10"
     gridtolerance="10"
     guidetolerance="10"
     inkscape:pageopacity="0"
     inkscape:pageshadow="2"
     inkscape:window-width="1855"
     inkscape:window-height="1056"
     id="namedview20"
     showgrid="false"
     inkscape:zoom="2.0615544"
     inkscape:cx="139.78871"
     inkscape:cy="101.47594"
     inkscape:window-x="65"
     inkscape:window-y="24"
     inkscape:window-maximized="1"
     inkscape:current-layer="svg2" /><defs
     id="defs4"><style
       type="text/css"
       id="style6"><![CDATA[
    .str0 {stroke:white;stroke-width:0.0762}
    .fil1 {fill:white}
    .fil0 {fill:white;fill-rule:nonzero}
   ]]></style></defs><g
     id="Слой_x0020_1"
     style="fill:#e8e8e8;fill-opacity:1"><metadata
       id="CorelCorpID_0Corel-Layer" /><path
       class="fil0"
       d="M19.0836 42.8717l0 15.0721 -3.0371 0 0 -8.52c0,-0.3348 0.0218,-0.8268 0.0655,-1.4758 0.0438,-0.6489 0.0656,-1.1338 0.0656,-1.4548l-0.0437 0 -4.195 11.4506 -2.1411 0 -4.1952 -11.4506 -0.0439 0c0,0.321 0.0222,0.8059 0.0658,1.4548 0.0437,0.649 0.0654,1.141 0.0654,1.4758l0 8.52 -3.037 0 0 -15.0721 4.3771 0 3.8382 10.9169 3.838 -10.9169 4.3774 0zm18.4405 7.4943c0,2.2048 -0.7865,4.0679 -2.3596,5.5891 -1.5732,1.5212 -3.5104,2.2818 -5.8118,2.2818 -2.2723,0 -4.2025,-0.7676 -5.7902,-2.3027 -1.5876,-1.5351 -2.3815,-3.3912 -2.3815,-5.5682 0,-2.1633 0.8009,-4.002 2.4035,-5.5161 1.6021,-1.5142 3.5323,-2.2713 5.7899,-2.2713 2.2723,0 4.1987,0.7536 5.7791,2.2607 1.5804,1.5074 2.3706,3.3494 2.3706,5.5267zm-3.19 -0.0212c0,-1.3535 -0.4805,-2.5225 -1.4419,-3.5062 -0.9614,-0.9839 -2.1413,-1.4759 -3.5395,-1.4759 -1.384,0 -2.5602,0.4988 -3.5288,1.4968 -0.9686,0.9978 -1.4529,2.1665 -1.4529,3.5065 0,1.3535 0.4805,2.5398 1.4421,3.5585 0.9614,1.0189 2.1413,1.5283 3.5396,1.5283 1.4564,0 2.6582,-0.5094 3.6049,-1.5283 0.9177,-0.9768 1.3765,-2.17 1.3765,-3.5797zm18.0475 7.599l-2.8331 0 -6.9771 -10.4913 0.0872 10.4913 -3.0151 0 0 -15.0721 2.9279 0 6.8823 10.4249 -0.0654 -10.4249 2.9933 0 0 15.0721zm11.0339 -12.3718l-3.1027 0 0 12.3718 -3.1682 0 0 -12.3718 -3.1025 0 0 -2.7003 9.3734 0 0 2.7003zm10.0722 12.3718l-8.4556 0 0 -15.0721 8.4556 0 0 2.7003 -5.331 0 0 3.3913 5.2656 0 0 2.7005 -5.2656 0 0 3.5377 5.331 0 0 2.7423zm13.8744 0l-3.7034 0 -4.4026 -6.1334 0 6.1334 -3.1246 0 0 -15.0721 5.3315 0c1.7331,0 3.1024,0.4187 4.1074,1.2559 1.0779,0.8792 1.6171,2.1352 1.6171,3.768 0,1.1863 -0.3935,2.2191 -1.18,3.0983 -0.7866,0.8792 -1.7917,1.3747 -3.0153,1.4862l4.3699 5.4637zm-3.2119 -9.9435c0,-1.6189 -1.0814,-2.4283 -3.2411,-2.4283l-1.653 0 0 4.6892 1.653 0c1.0452,0 1.7992,-0.1256 2.2616,-0.3769 0.6517,-0.3348 0.9795,-0.9628 0.9795,-1.884zm13.634 9.9435l-8.4557 0 0 -15.0721 8.4557 0 0 2.7003 -5.3311 0 0 3.3913 5.2657 0 0 2.7005 -5.2657 0 0 3.5377 5.3311 0 0 2.7423zm7.4506 -8.4361l2.884 -6.636 3.4305 0 -4.7412 9.5457 0 5.5264 -3.1682 0 0 -5.5264 -4.7414 -9.5457 3.4305 0 2.884 6.6569 0.0218 -0.0209z"
       id="path10"
       style="fill:#e8e8e8;fill-opacity:1" /><path
       class="fil1 str0"
       d="M93.2159 31.2994c2.1627,0 3.9161,1.7534 3.9161,3.9161 0,2.1628 -1.7534,3.9161 -3.9161,3.9161 -2.1628,0 -3.9161,-1.7533 -3.9161,-3.9161 0,-2.1627 1.7533,-3.9161 3.9161,-3.9161zm0 0.7079c1.7719,0 3.2082,1.4364 3.2082,3.2082 0,1.7719 -1.4363,3.2082 -3.2082,3.2082 -1.7719,0 -3.2082,-1.4363 -3.2082,-3.2082 0,-1.7718 1.4363,-3.2082 3.2082,-3.2082z"
       id="path12"
       style="fill:#e8e8e8;fill-opacity:1" /><path
       class="fil1 str0"
       d="M107.224 31.2826c2.1627,0 3.9161,1.7533 3.9161,3.9161 0,0.1558 -0.0095,0.3093 -0.0271,0.4602l-0.0406 0 0 0.0009 -7.0235 0c0.2237,1.5533 1.5599,2.7471 3.1751,2.7471 1.1025,0 2.0754,-0.5561 2.6526,-1.4033l0.8232 0c-0.6525,1.2546 -1.9642,2.1112 -3.4758,2.1112 -2.1628,0 -3.9161,-1.7534 -3.9161,-3.9161 0,-2.1628 1.7533,-3.9161 3.9161,-3.9161zm3.2016 3.7138c-0.1044,-1.6777 -1.4977,-3.0059 -3.2016,-3.0059 -1.704,0 -3.0972,1.3282 -3.2016,3.0059l6.3981 0 0.0051 0z"
       id="path14"
       style="fill:#e8e8e8;fill-opacity:1" /><path
       class="fil0 str0"
       d="M99.9317 39.1316l-1.8102 -4.7971 0.8703 0 1.026 2.8729c0.1109,0.3098 0.2142,0.6317 0.3081,0.9659 0.0725,-0.2525 0.1726,-0.5561 0.3034,-0.9119l1.0661 -2.9269 0.8349 0 -1.8161 4.7971 -0.7825 0z"
       id="path16"
       style="fill:#e8e8e8;fill-opacity:1" /><path
       class="fil1"
       d="M3.8082 36.3734c1.319,-0.8803 2.6288,-1.7543 3.9302,-2.619 12.0179,-7.992 23.3252,-15.3084 34.3852,-21.5297 6.5121,-3.6635 16.5269,-8.9079 23.3592,-10.5881 0.148,-0.0364 0.2947,-0.0714 0.4396,-0.1044l0.2322 -0.0516c0.1439,-0.0313 0.286,-0.0605 0.4267,-0.0882l0.2004 -0.0393c0.1572,-0.0294 0.3111,-0.0554 0.4639,-0.0799 0.0665,-0.0107 0.1329,-0.0214 0.1983,-0.0311 0.1491,-0.0221 0.2954,-0.0414 0.4397,-0.0586 0.0644,-0.0076 0.1285,-0.0149 0.192,-0.0216 0.1414,-0.0149 0.2809,-0.0275 0.4174,-0.0374 0.0631,-0.0046 0.1247,-0.0078 0.1868,-0.0112 0.1308,-0.0071 0.26,-0.0129 0.3859,-0.0151 0.0605,-0.001 0.1193,-0.0003 0.1786,-0.0003 0.1013,0.0001 0.2011,0.0022 0.299,0.0059 0.0787,0.0029 0.1562,0.0073 0.2325,0.0126 0.0897,0.0063 0.1777,0.0139 0.2641,0.0234 0.072,0.0078 0.1429,0.0169 0.2127,0.0271 0.0898,0.013 0.1774,0.0282 0.2633,0.0452 0.0544,0.0107 0.1089,0.0214 0.1618,0.0338 0.0951,0.0222 0.1872,0.0476 0.277,0.0751 0.0537,0.0165 0.1065,0.0338 0.1584,0.052 0.0837,0.0297 0.1653,0.0619 0.2438,0.0965 0.0514,0.0226 0.1008,0.0471 0.1497,0.0719 0.06,0.0304 0.1178,0.0629 0.1744,0.0965 0.0595,0.0356 0.1168,0.0729 0.1723,0.1122 0.043,0.0304 0.0845,0.0624 0.1251,0.095 0.0624,0.05 0.1215,0.103 0.1781,0.1584 0.0332,0.0325 0.0653,0.0659 0.0964,0.1003 0.0574,0.0633 0.1108,0.1305 0.1614,0.2005 0.025,0.0347 0.0497,0.0697 0.0728,0.1059 0.0474,0.0739 0.0905,0.1522 0.1307,0.233 0.0202,0.0409 0.0406,0.0817 0.0589,0.1244 0.0257,0.0593 0.0495,0.1201 0.0714,0.183 0.0238,0.0688 0.045,0.1399 0.0644,0.2129 0.0192,0.0723 0.0357,0.147 0.0503,0.2235 0.0065,0.0337 0.0112,0.0688 0.0167,0.1033 0.0199,0.1229 0.0343,0.2509 0.0426,0.3845 0.0022,0.0356 0.0033,0.0724 0.0046,0.1089 0.0053,0.1402 0.0041,0.2862 -0.003,0.4378l-0.0062 0.1059c-0.0105,0.1605 -0.0289,0.3279 -0.0533,0.5013l-0.0143 0.0986c-0.0297,0.1917 -0.0688,0.3922 -0.1157,0.5995l-0.0124 0.0559c-0.1355,0.5829 -0.3413,1.2298 -0.6181,1.9403l-0.0267 0.0673c-0.1035,0.2631 -0.2179,0.5355 -0.3416,0.8166l-0.036 0.0812c-0.1255,0.2825 -0.2623,0.5753 -0.4084,0.8761l-0.0371 0.0761c-0.158,0.3231 -0.3288,0.6579 -0.511,1.0025l-0.0022 0.0041c-0.4702,0.8893 -1.0265,1.8548 -1.6655,2.8933l-0.0119 0.0192c-0.2465,0.4004 -0.5083,0.8141 -0.7807,1.2371l-0.0593 0.0917c-0.2566,0.3974 -0.5277,0.8073 -0.8074,1.225l-0.1001 0.149c-0.2809,0.4178 -0.5778,0.8496 -0.8822,1.2877l-0.0833 0.12c-0.4274,0.6142 -0.875,1.2455 -1.3527,1.9034 0.103,-0.0413 0.2065,-0.0838 0.3101,-0.1261l0.3644 -0.1504 0.0399 -0.0165 0.3683 -0.1552 0.0415 -0.0175 0.3735 -0.16 0.0335 -0.0145c1.9193,-0.8295 3.9329,-1.7929 5.937,-2.7611l0.1987 -0.0958 0.2313 -0.112c1.0785,-0.5216 2.1517,-1.0415 3.2041,-1.5403l0.0204 -0.0096c0.4161,-0.1972 0.8285,-0.3906 1.2369,-0.5797l0.0263 -0.0123 0.3437 -0.1583 0.0973 -0.0447 0.3326 -0.1515 0.0658 -0.0299 0.2938 -0.1324 0.1503 -0.0671 0.3176 -0.141 0.0347 -0.0153 0.3641 -0.1596 0.0432 -0.0187 0.3399 -0.1463 0.0605 -0.0259 0.2921 -0.1235 0.1221 -0.0512 0.2962 -0.1225 0.0644 -0.0265c0.1087,-0.0445 0.2167,-0.0884 0.3242,-0.1314l0.0607 -0.0243 0.2738 -0.1082 0.1205 -0.0471 0.2537 -0.0974 0.1093 -0.0416 0.2586 -0.0962 0.1085 -0.04 0.2469 -0.0888 0.1115 -0.0396c0.079,-0.0279 0.1572,-0.0548 0.2354,-0.0814l0.1213 -0.0415 0.2221 -0.0736 0.121 -0.0396 0.2201 -0.0693 0.1229 -0.0381c0.0746,-0.0228 0.1482,-0.0444 0.2217,-0.0659l0.1041 -0.0306c0.0722,-0.0208 0.1434,-0.0405 0.2146,-0.06l0.1184 -0.0325 0.1914 -0.0494 0.1253 -0.032c0.0608,-0.0149 0.1206,-0.0287 0.1804,-0.0426l0.1346 -0.0313c0.058,-0.0129 0.1149,-0.0245 0.172,-0.0365l0.127 -0.0266c0.063,-0.0125 0.1249,-0.0237 0.1869,-0.035l0.1054 -0.0192c0.061,-0.0105 0.1206,-0.0193 0.1806,-0.0285l0.1096 -0.017c0.0483,-0.0068 0.0955,-0.0122 0.1431,-0.0182 0.0468,-0.0059 0.0938,-0.0124 0.1399,-0.0173 0.0411,-0.0044 0.0812,-0.0077 0.1218,-0.0114 0.049,-0.0046 0.0983,-0.0095 0.1464,-0.0131 0.0482,-0.0036 0.0951,-0.0056 0.1424,-0.0082 0.0381,-0.002 0.0766,-0.0045 0.114,-0.0059 0.0496,-0.0017 0.0979,-0.0019 0.1465,-0.0024 0.0357,-0.0003 0.0719,-0.0015 0.1069,-0.0012 0.0471,0.0004 0.0925,0.0026 0.1385,0.0041 0.0342,0.0012 0.069,0.0015 0.1027,0.0034 0.0462,0.0026 0.0909,0.0068 0.1359,0.0107 0.0323,0.0027 0.0654,0.0048 0.0972,0.0082 0.0483,0.0052 0.0947,0.0124 0.1416,0.0192 0.0267,0.0039 0.054,0.0068 0.0802,0.011 0.0454,0.0075 0.0887,0.0172 0.1329,0.0264 0.0269,0.0056 0.0547,0.0102 0.0812,0.0163 0.0344,0.008 0.067,0.018 0.1005,0.027 0.0346,0.0093 0.0698,0.0178 0.1035,0.0282l0.0022 0.0005c0.0639,0.0196 0.1259,0.0417 0.1864,0.0653l0.0017 0.0007c0.0418,0.0164 0.0818,0.0351 0.122,0.0537l0.0588 0.0258 0.0021 0.001c0.0584,0.0282 0.1145,0.0595 0.1692,0.0925 4.7928,2.8965 -3.9356,12.0142 -3.5698,13.7373 0.0863,0.4045 24.3948,-8.8939 27.4473,-9.0987 -4.8902,2.062 -33.8176,15.9691 -34.7341,14.7292 -1.2832,-1.7358 8.3737,-11.1077 6.6785,-12.6694 -0.0593,-0.0546 -0.124,-0.1042 -0.1923,-0.1503l-0.0174 -0.012c-0.0654,-0.0429 -0.1353,-0.0813 -0.2085,-0.1166l-0.0328 -0.0162c-0.0727,-0.0335 -0.1494,-0.063 -0.2293,-0.0895l-0.0384 -0.0126c-0.0805,-0.0253 -0.1648,-0.0471 -0.2523,-0.0658l-0.0461 -0.0092c-0.0894,-0.0175 -0.1818,-0.0321 -0.2782,-0.043l-0.0386 -0.0039c-0.1001,-0.0103 -0.2032,-0.0178 -0.3105,-0.0214l-0.0329 -0.0007c-0.1117,-0.003 -0.2264,-0.0032 -0.3454,0.0009l-0.0018 0.0002c-0.1202,0.004 -0.2446,0.0122 -0.3719,0.0234l-0.0345 0.0029c-0.1205,0.0111 -0.2447,0.0257 -0.3715,0.0428l-0.0613 0.0082c-0.1231,0.0173 -0.2493,0.0379 -0.378,0.0607l-0.0758 0.0136c-0.1307,0.0239 -0.2641,0.0508 -0.4,0.08l-0.0629 0.0139c-0.1395,0.0308 -0.2814,0.0639 -0.4262,0.1l-0.0682 0.0173c-0.1482,0.0376 -0.2984,0.077 -0.4519,0.1198l-0.0421 0.0121c-0.1603,0.045 -0.3227,0.0923 -0.4884,0.1429l-0.0022 0.0007 -0.0053 0.0015 -0.0216 0.0068c-0.1553,0.0476 -0.3134,0.0981 -0.4733,0.1502l-0.0719 0.0233c-0.163,0.0537 -0.3286,0.1103 -0.496,0.1686l-0.073 0.0253c-0.1622,0.057 -0.3271,0.1163 -0.4935,0.1775l-0.1079 0.0395c-0.1604,0.0595 -0.3229,0.1209 -0.4867,0.1839l-0.1283 0.0497c-0.1594,0.0618 -0.3205,0.1252 -0.483,0.1903l-0.1572 0.0634c-0.1652,0.0668 -0.3312,0.1346 -0.4995,0.2046l-0.1084 0.0454c-0.1677,0.0702 -0.3368,0.1415 -0.5073,0.2148l-0.1218 0.0525c-0.1766,0.0761 -0.3547,0.1536 -0.5342,0.2328l-0.0513 0.0225 -0.0406 0.018c-0.1713,0.0758 -0.3445,0.1536 -0.5182,0.2321l-0.1749 0.079c-0.1694,0.077 -0.34,0.1554 -0.5115,0.2346l-0.1805 0.0834c-0.1706,0.0794 -0.3422,0.1598 -0.5147,0.2412l-0.1776 0.0841c-0.1713,0.0812 -0.3437,0.1633 -0.5165,0.2464l-0.2308 0.1115 -0.4974 0.2416 -0.2242 0.1102 -0.3477 0.1716 -0.4293 0.2136 -0.3043 0.1527 -0.3403 0.1713 -0.3985 0.2024 -0.2709 0.1381 -0.3924 0.2014 -0.0229 0.0117 -0.3708 0.1916 -0.395 0.2051 -0.3902 0.2036 -0.0058 0.003 -0.3968 0.2084 -0.3674 0.1937 -0.1095 0.058 -0.6877 0.3652c-7.3175,3.9014 -14.8344,8.3616 -18.8522,10.1813 -0.3904,0.1769 -0.8124,-0.3768 -1.1325,-0.2548 48.7304,-48.983 -16.042,-7.484 -41.5349,2.2652zm69.0043 -33.2099c0.019,0.0723 0.0357,0.147 0.0503,0.2235"
       id="path18"
       style="fill:#e8e8e8;fill-opacity:1" /></g></svg>